<mxfile host="www.draw.io" modified="2019-11-11T14:35:28.548Z" agent="Mozilla/5.0 (Windows NT 10.0; Win64; x64; rv:70.0) Gecko/20100101 Firefox/70.0" etag="oGebdS73o-ZP7f6tyMSx" version="12.2.3" type="github" pages="1">
  <diagram id="ioQyg1-K3fhoK34imJTq" name="Page-1">
    <mxGraphModel dx="1422" dy="791" grid="1" gridSize="10" guides="1" tooltips="1" connect="1" arrows="1" fold="1" page="1" pageScale="1" pageWidth="850" pageHeight="1100" math="0" shadow="0">
      <root>
        <mxCell id="0"/>
        <mxCell id="1" parent="0"/>
        <mxCell id="OMyg8Y4WhbCAZjOI22-a-5" value="UT" style="rounded=0;whiteSpace=wrap;html=1;fillColor=none;fontSize=20;verticalAlign=bottom;" vertex="1" parent="1">
          <mxGeometry x="480" y="120" width="180" height="400" as="geometry"/>
        </mxCell>
        <mxCell id="OMyg8Y4WhbCAZjOI22-a-2" value="VELO" style="rounded=0;whiteSpace=wrap;html=1;fillColor=none;verticalAlign=bottom;fontSize=20;" vertex="1" parent="1">
          <mxGeometry x="40" y="280" width="160" height="80" as="geometry"/>
        </mxCell>
        <mxCell id="OMyg8Y4WhbCAZjOI22-a-1" value="" style="endArrow=none;html=1;exitX=0.5;exitY=0.5;exitDx=0;exitDy=0;exitPerimeter=0;strokeWidth=2;" edge="1" parent="1" source="OMyg8Y4WhbCAZjOI22-a-2">
          <mxGeometry width="50" height="50" relative="1" as="geometry">
            <mxPoint x="260" y="450" as="sourcePoint"/>
            <mxPoint x="370" y="230" as="targetPoint"/>
          </mxGeometry>
        </mxCell>
        <mxCell id="OMyg8Y4WhbCAZjOI22-a-11" value="&lt;font style=&quot;font-size: 14px&quot;&gt;Velo track&lt;br&gt;&lt;/font&gt;" style="text;html=1;resizable=0;points=[];align=center;verticalAlign=middle;labelBackgroundColor=#ffffff;fontSize=20;" vertex="1" connectable="0" parent="OMyg8Y4WhbCAZjOI22-a-1">
          <mxGeometry x="0.1088" y="-4" relative="1" as="geometry">
            <mxPoint x="-9.5" y="-34" as="offset"/>
          </mxGeometry>
        </mxCell>
        <mxCell id="OMyg8Y4WhbCAZjOI22-a-12" value="Extrapolated parabola" style="text;html=1;resizable=0;points=[];align=center;verticalAlign=middle;labelBackgroundColor=#ffffff;fontSize=14;" vertex="1" connectable="0" parent="OMyg8Y4WhbCAZjOI22-a-1">
          <mxGeometry x="0.1088" y="-4" relative="1" as="geometry">
            <mxPoint x="150.5" y="-94" as="offset"/>
          </mxGeometry>
        </mxCell>
        <mxCell id="OMyg8Y4WhbCAZjOI22-a-13" value="UT hits" style="text;html=1;resizable=0;points=[];align=center;verticalAlign=middle;labelBackgroundColor=#ffffff;fontSize=14;" vertex="1" connectable="0" parent="OMyg8Y4WhbCAZjOI22-a-1">
          <mxGeometry x="0.1088" y="-4" relative="1" as="geometry">
            <mxPoint x="320.5" y="-114" as="offset"/>
          </mxGeometry>
        </mxCell>
        <mxCell id="OMyg8Y4WhbCAZjOI22-a-4" value="" style="endArrow=none;dashed=1;html=1;strokeWidth=2;curved=1;" edge="1" parent="1">
          <mxGeometry width="50" height="50" relative="1" as="geometry">
            <mxPoint x="370" y="230" as="sourcePoint"/>
            <mxPoint x="680" y="180" as="targetPoint"/>
            <Array as="points">
              <mxPoint x="520" y="170"/>
            </Array>
          </mxGeometry>
        </mxCell>
        <mxCell id="OMyg8Y4WhbCAZjOI22-a-6" value="" style="ellipse;whiteSpace=wrap;html=1;aspect=fixed;fillColor=#dae8fc;strokeColor=#6c8ebf;" vertex="1" parent="1">
          <mxGeometry x="509" y="175" width="20" height="20" as="geometry"/>
        </mxCell>
        <mxCell id="OMyg8Y4WhbCAZjOI22-a-7" value="" style="ellipse;whiteSpace=wrap;html=1;aspect=fixed;fillColor=#dae8fc;strokeColor=#6c8ebf;" vertex="1" parent="1">
          <mxGeometry x="550" y="170" width="20" height="20" as="geometry"/>
        </mxCell>
        <mxCell id="OMyg8Y4WhbCAZjOI22-a-8" value="" style="ellipse;whiteSpace=wrap;html=1;aspect=fixed;fillColor=#dae8fc;strokeColor=#6c8ebf;" vertex="1" parent="1">
          <mxGeometry x="590" y="168" width="20" height="20" as="geometry"/>
        </mxCell>
        <mxCell id="OMyg8Y4WhbCAZjOI22-a-9" value="" style="ellipse;whiteSpace=wrap;html=1;aspect=fixed;fillColor=#dae8fc;strokeColor=#6c8ebf;" vertex="1" parent="1">
          <mxGeometry x="630" y="170" width="20" height="20" as="geometry"/>
        </mxCell>
      </root>
    </mxGraphModel>
  </diagram>
</mxfile>
